:FULLY-SPECIFIED
:FORCE-ALL-JOINTS-BE-3DOF
:DEGREES
577
root 6.99422 16.3751 -3.57252 -166.324 76.4435 -173.266
lfemur -16.8827 -3.46523 -19.4231
ltibia 44.4698 0 0
lfoot -32.4223 10.5943 0
ltoes 7.72309 0 0
rfemur -52.3942 -12.7689 14.0263
rtibia 49.088 0 0
rfoot 10.7007 4.96001 0
rtoes -29.5175 0 0
lowerback 6.63977 -0.652999 -2.31049
upperback 2.37172 -0.860388 3.38525
thorax -1.18394 -0.40765 4.87014
lowerneck -5.40132 -13.4684 -3.97556
upperneck 10.5797 -18.249 5.07895
head 4.89399 -8.81938 0.998729
lclavicle 1.4644e-14 -9.07339e-15 0
lhumerus -39.7394 -17.6875 92.6084
lradius 55.068 0 0
lwrist 23.3025 0 0
lhand -21.2682 -3.78129 0
lfingers 7.12502 0 0
lthumb 5.11542 26.1369 0
rclavicle 1.4644e-14 -9.07339e-15 0
rhumerus 28.518 15.2595 -73.8659
rradius 133.876 0 0
rwrist -45.9359 0 0
rhand -25.7821 -21.3309 0
rfingers 7.12502 0 0
rthumb 0.756167 -771.309 0
578
root 6.93284 16.3896 -3.56497 -165.494 77.3701 -172.381
lfemur -16.7316 -3.47829 -19.5102
ltibia 44.0582 0 0
lfoot -32.327 11.0623 0
ltoes 8.45758 0 0
rfemur -52.666 -13.1188 14.226
rtibia 51.199 0 0
rfoot 11.3874 5.43982 0
rtoes -28.1752 0 0
lowerback 6.43909 -0.641347 -2.42823
upperback 2.31532 -0.859325 3.25514
thorax -1.13105 -0.410386 4.79774
lowerneck -5.47643 -13.431 -3.90825
upperneck 10.8159 -18.2134 5.05515
head 4.96969 -8.79215 0.971663
lclavicle 1.38512e-14 -7.92472e-15 0
lhumerus -38.6761 -18.4387 91.7546
lradius 54.8597 0 0
lwrist 23.7764 0 0
lhand -21.1966 -3.46241 0
lfingers 7.12502 0 0
lthumb 5.18455 26.4541 0
rclavicle 1.38512e-14 -7.92472e-15 0
rhumerus 28.4449 15.2115 -73.8369
rradius 133.87 0 0
rwrist -45.9963 0 0
rhand -25.6515 -21.1582 0
rfingers 7.12502 0 0
rthumb 0.882278 -771.136 0
579
root 6.8714 16.4017 -3.5562 -164.591 78.2722 -171.413
lfemur -16.6221 -3.35967 -19.573
ltibia 43.7291 0 0
lfoot -32.248 11.448 0
ltoes 9.03026 0 0
rfemur -52.8585 -13.4516 14.3915
rtibia 53.2585 0 0
rfoot 12.1385 6.04564 0
rtoes -26.84 0 0
lowerback 6.23378 -0.63676 -2.54658
upperback 2.26184 -0.867004 3.12609
thorax -1.07162 -0.417563 4.72733
lowerneck -5.54507 -13.3961 -3.84423
upperneck 11.0485 -18.1828 5.04651
head 5.04525 -8.76675 0.949526
lclavicle 1.20152e-14 -5.21128e-15 0
lhumerus -37.5567 -19.2072 90.896
lradius 54.6308 0 0
lwrist 24.1891 0 0
lhand -21.0997 -3.15568 0
lfingers 7.12502 0 0
lthumb 5.27807 26.7585 0
rclavicle 1.20152e-14 -5.21128e-15 0
rhumerus 28.3259 15.2079 -73.8068
rradius 133.876 0 0
rwrist -45.9948 0 0
rhand -25.5231 -20.96 0
rfingers 7.12502 0 0
rthumb 1.00638 -770.937 0
580
root 6.81189 16.4113 -3.54647 -163.635 79.1192 -170.384
lfemur -16.5554 -3.11683 -19.6081
ltibia 43.4889 0 0
lfoot -32.1846 11.7442 0
ltoes 9.41673 0 0
rfemur -52.9608 -13.7557 14.5214
rtibia 55.1879 0 0
rfoot 12.9101 6.73237 0
rtoes -25.5423 0 0
lowerback 6.03218 -0.639906 -2.66317
upperback 2.21337 -0.883906 3.00413
thorax -1.008 -0.429311 4.66402
lowerneck -5.60491 -13.3648 -3.78692
upperneck 11.2668 -18.1583 5.05443
head 5.11745 -8.7441 0.933651
lclavicle 1.08207e-14 -2.16742e-16 0
lhumerus -36.419 -19.9666 90.0638
lradius 54.3913 0 0
lwrist 24.5244 0 0
lhand -20.9799 -2.87191 0
lfingers 7.12502 0 0
lthumb 5.39369 27.0393 0
rclavicle 1.08207e-14 -2.16742e-16 0
rhumerus 28.1677 15.2467 -73.7725
rradius 133.895 0 0
rwrist -45.9337 0 0
rhand -25.4021 -20.7445 0
rfingers 7.12502 0 0
rthumb 1.12323 -770.721 0
581
root 6.75632 16.4181 -3.53604 -162.65 79.8809 -169.32
lfemur -16.5324 -2.75721 -19.6123
ltibia 43.3438 0 0
lfoot -32.1362 11.9435 0
ltoes 9.59261 0 0
rfemur -52.9624 -14.0198 14.6144
rtibia 56.9086 0 0
rfoot 13.6579 7.45489 0
rtoes -24.3124 0 0
lowerback 5.84263 -0.651454 -2.7756
upperback 2.17205 -0.910516 2.8953
thorax -0.942522 -0.445759 4.6129
lowerneck -5.65362 -13.3386 -3.73973
upperneck 11.4602 -18.1408 5.08028
head 5.18306 -8.72512 0.92537
lclavicle 1.19526e-14 7.77521e-15 0
lhumerus -35.301 -20.6905 89.2891
lradius 54.151 0 0
lwrist 24.7662 0 0
lhand -20.8397 -2.6219 0
lfingers 7.12502 0 0
lthumb 5.52914 27.2859 0
rclavicle 1.19526e-14 7.77521e-15 0
rhumerus 27.9771 15.3257 -73.7313
rradius 133.926 0 0
rwrist -45.8153 0 0
rhand -25.2941 -20.5197 0
rfingers 7.12502 0 0
rthumb 1.22755 -770.496 0
582
root 6.70668 16.4219 -3.52517 -161.655 80.5267 -168.243
lfemur -16.5543 -2.28828 -19.5821
ltibia 43.2999 0 0
lfoot -32.1021 12.0386 0
ltoes 9.53351 0 0
rfemur -52.8524 -14.2324 14.669
rtibia 58.3423 0 0
rfoot 14.3379 8.16808 0
rtoes -23.1809 0 0
lowerback 5.67349 -0.672073 -2.8815
upperback 2.13999 -0.947316 2.80564
thorax -0.877532 -0.467035 4.57908
lowerneck -5.68886 -13.3185 -3.70611
upperneck 11.6179 -18.1314 5.12545
head 5.23887 -8.71073 0.926016
lclavicle 1.70955e-14 1.94809e-14 0
lhumerus -34.2402 -21.3527 88.6031
lradius 53.9197 0 0
lwrist 24.8981 0 0
lhand -20.6812 -2.41646 0
lfingers 7.12502 0 0
lthumb 5.68214 27.4874 0
rclavicle 1.70955e-14 1.94809e-14 0
rhumerus 27.7608 15.4426 -73.6802
rradius 133.969 0 0
rwrist -45.6418 0 0
rhand -25.2045 -20.2936 0
rfingers 7.12502 0 0
rthumb 1.3141 -770.269 0
583
root 6.6609 16.4199 -3.51022 -160.039 81.0866 -166.493
lfemur -16.6201 -1.42845 -19.4723
ltibia 43.438 0 0
lfoot -32.0708 12.0357 0
ltoes 8.73043 0 0
rfemur -52.2852 -14.2412 14.6858
rtibia 58.9746 0 0
rfoot 14.5509 8.47902 0
rtoes -22.0388 0 0
lowerback 5.55309 -0.720187 -3.06282
upperback 2.13193 -1.02152 2.76101
thorax -0.808034 -0.507427 4.63755
lowerneck -5.68199 -13.3085 -3.71592
upperneck 11.6923 -18.1386 5.2445
head 5.27361 -8.70493 0.958209
lclavicle 1.02399e-14 8.03296e-15 0
lhumerus -33.1351 -21.9706 88.0661
lradius 53.7314 0 0
lwrist 24.8291 0 0
lhand -20.504 -2.31319 0
lfingers 7.12502 0 0
lthumb 5.85325 27.5858 0
rclavicle 1.02399e-14 8.03296e-15 0
rhumerus 27.4799 15.6266 -73.5583
rradius 134.018 0 0
rwrist -45.3859 0 0
rhand -25.184 -20.075 0
rfingers 7.12502 0 0
rthumb 1.33385 -770.05 0
584
root 6.61173 16.4167 -3.49354 -157.898 81.7238 -164.194
lfemur -16.6833 -0.404763 -19.3551
ltibia 43.6063 0 0
lfoot -32.0351 12.0513 0
ltoes 7.73795 0 0
rfemur -51.563 -14.1655 14.7092
rtibia 59.3849 0 0
rfoot 14.5453 8.66778 0
rtoes -20.9746 0 0
lowerback 5.43396 -0.775588 -3.29174
upperback 2.12659 -1.10753 2.71378
thorax -0.733673 -0.554269 4.72081
lowerneck -5.66392 -13.2968 -3.7316
upperneck 11.767 -18.1465 5.38621
head 5.30934 -8.69847 0.998407
lclavicle 6.16451e-15 -1.09998e-15 0
lhumerus -31.9558 -22.6282 87.5304
lradius 53.5592 0 0
lwrist 24.7533 0 0
lhand -20.3358 -2.23489 0
lfingers 7.12502 0 0
lthumb 6.01565 27.6595 0
rclavicle 6.16451e-15 -1.09998e-15 0
rhumerus 27.1701 15.8204 -73.428
rradius 134.053 0 0
rwrist -45.1256 0 0
rhand -25.1927 -19.863 0
rfingers 7.12502 0 0
rthumb 1.32543 -769.839 0
